<svg xmlns="http://www.w3.org/2000/svg" xmlns:xlink="http://www.w3.org/1999/xlink" buffered-rendering="static" width="32px" height="32px" viewBox="0,0,32,32">
<desc>
This file was created by http://www.h2.dion.ne.jp/~defghi/img2svg3/dot2svg3.htm at Fri Feb 14 2025 01:40:05 GMT+0900 (日本標準時)
path count:10
</desc>
<defs>
<g id="dots">
<path d="m0,0h8v2h-2v2h-2v4h-2v4h-2zm26,0h6v8h-2v-4h-2v-2h-2zm-26,26h2v2h2v2h2v2h-6zm30,2h2v4h-4v-2h2zm-14,2h4v2h-4z" opacity="0"/>
<path d="m8,0h4v2h-4v2h-2v4h-2v4h-2v14h2v2h4v2h2v2h-4v-2h-2v-2h-2v-2h-2v-14h2v-4h2v-4h2v-2h2zm10,0h8v2h2v2h2v4h2v20h-2v2h-2v2h-2v-2h2v-2h2v-20h-2v-2h-2v-2h-2v-2h-6zm-2,26h4v2h-4z" fill="#492400"/>
<path d="m12,0h6v2h6v4h4v2h2v16h-2v-12h-2v-2h-2v4h-6v2h2v2h-4v-2h-2v-2h-4v-2h-4v10h-2v4h2v2h-2v-2h-2v-14h2v-4h2v2h4v-2h-2v-2h-2v-2h2v-2h4zm5,2h-1v2h2v-2zm-2,2h-1v2h-2v4h2v2h2v2h2v-4h-2v-6zm8,2h-1v2h2v-2zm-4,2h-1v2h4v-2zm-9,12h4v2h-2v2h-2zm12,0h4v2h-2v2h-2zm6,6h2v2h-2z" fill="#ff49b6"/>
<path d="m16,2h2v2h-2v6h2v4h2v2h-2v-2h-2v-2h-2v-2h-2v-4h2v-2h2zm8,8h2v2h2v12h-2v-12h-2zm-18,2h2v10h-2v4h2v2h2v2h6v2h-6v-2h-2v-2h-2v-2h-2v-4h2zm20,14h2v4h-2v2h-6v-2h4v-2h2z" fill="#b600ff"/>
<path d="m24,4h2v2h-2v2h-2v2h-4v-2h4v-2h2zm-18,2h2v2h2v2h-4z" fill="#b6dbff"/>
<path d="m8,12h2v2h4v2h2v2h4v6h4v2h2v2h-2v2h-14v-2h-2v-2h2v-2h4v-8h-6zm16,0h2v4h-6v-2h4zm-18,10h2v2h-2zm11,4h-1v2h4v-2z" fill="#ffdbdb"/>
<path d="m8,16h4v2h2v2h-6zm12,0h4v2h2v2h-6z"/>
<path d="m12,16h2v2h-2zm12,0h2v2h-2zm-16,4h2v4h-2zm12,0h2v4h-2z" fill="#fff"/>
<path d="m12,22h2v2h-2zm12,0h2v2h-2z" fill="#dbdb24"/>
<path d="m6,24h4v2h-4zm18,0h6v2h-6z" fill="#f00"/>
</g>
</defs>
<use xlink:href="#dots"/>
</svg>