<svg width="49.792" height="49.664" viewBox="0 0 49.792 49.664" xmlns="http://www.w3.org/2000/svg"><g id="svgGroup" stroke-linecap="round" fill-rule="evenodd" font-size="9pt" stroke="#ffffff" stroke-width="0.25mm" fill="#ffffff" style="stroke:#ffffff;stroke-width:0.25mm;fill:#ffffff"><path d="M 12.928 18.816 L 12.928 18.688 A 1.042 1.042 0 0 0 12.912 18.494 Q 12.832 18.075 12.365 18.174 A 1.096 1.096 0 0 0 12.352 18.176 Q 7.616 18.688 2.688 18.56 Q 1.6 18.496 0.8 17.696 A 2.738 2.738 0 0 1 0.188 16.795 A 2.583 2.583 0 0 1 0 15.808 A 2.926 2.926 0 0 1 0.235 14.625 A 2.806 2.806 0 0 1 0.832 13.76 A 2.551 2.551 0 0 1 2.674 12.988 Q 2.776 12.987 2.88 12.992 Q 3.712 13.056 4.512 13.056 L 6.144 13.056 Q 8.064 13.056 9.92 12.96 Q 11.776 12.864 13.568 12.608 A 0.797 0.797 0 0 0 13.815 12.54 Q 14.098 12.404 14.144 12.032 Q 14.528 9.792 14.752 7.456 Q 14.976 5.12 15.104 2.752 Q 15.168 1.664 16 0.832 A 2.947 2.947 0 0 1 16.805 0.25 A 2.54 2.54 0 0 1 17.92 0 A 3.222 3.222 0 0 1 18.971 0.165 A 2.743 2.743 0 0 1 20.032 0.832 Q 20.805 1.605 20.805 2.764 A 3.616 3.616 0 0 1 20.8 2.944 Q 20.736 4.8 20.576 6.656 Q 20.416 8.512 20.16 10.368 L 20.16 10.496 Q 20.16 11.132 20.729 10.883 A 1.335 1.335 0 0 0 20.736 10.88 Q 22.464 10.24 24.192 9.28 Q 24.896 8.896 25.664 8.896 A 3.111 3.111 0 0 1 26.866 9.121 Q 27.557 9.407 28.056 10.059 A 3.642 3.642 0 0 1 28.096 10.112 Q 28.608 10.816 28.608 11.648 A 2.497 2.497 0 0 1 27.721 13.618 A 3.483 3.483 0 0 1 27.264 13.952 Q 25.536 14.976 23.584 15.712 Q 21.632 16.448 19.456 16.96 A 0.552 0.552 0 0 0 19.061 17.24 Q 19.004 17.335 18.965 17.463 A 1.442 1.442 0 0 0 18.944 17.536 Q 17.152 26.24 13.984 34.144 Q 10.816 42.048 7.04 48.32 Q 6.656 48.96 6.016 49.312 Q 5.376 49.664 4.672 49.664 A 2.993 2.993 0 0 1 3.891 49.567 A 2.389 2.389 0 0 1 3.136 49.216 Q 1.792 48.32 1.792 46.784 A 3.065 3.065 0 0 1 1.904 45.943 A 2.603 2.603 0 0 1 2.176 45.312 Q 5.952 38.912 8.64 32.32 Q 11.328 25.728 12.928 18.816 Z M 49.792 45.12 Q 49.792 46.08 49.216 46.912 A 2.94 2.94 0 0 1 47.68 48.044 A 3.654 3.654 0 0 1 47.616 48.064 Q 45.312 48.704 43.008 49.024 Q 40.704 49.344 38.4 49.344 Q 33.728 49.344 29.28 48 Q 24.832 46.656 20.8 43.904 Q 19.596 43.08 19.584 41.691 A 3.238 3.238 0 0 1 19.584 41.664 A 2.69 2.69 0 0 1 20.086 40.103 A 3.345 3.345 0 0 1 20.16 40 A 2.456 2.456 0 0 1 21.936 38.879 A 3.361 3.361 0 0 1 22.4 38.848 Q 23.12 38.848 23.897 39.298 A 4.598 4.598 0 0 1 24 39.36 Q 30.528 43.648 38.272 43.648 A 29.87 29.87 0 0 0 46.272 42.532 A 33.106 33.106 0 0 0 46.4 42.496 A 1.717 1.717 0 0 1 46.579 42.462 Q 46.796 42.432 47.104 42.432 Q 48.192 42.432 48.992 43.168 A 2.437 2.437 0 0 1 49.773 44.752 A 3.381 3.381 0 0 1 49.792 45.12 Z M 25.024 18.752 Q 25.024 17.664 25.728 16.864 Q 26.432 16.064 27.456 15.936 Q 28.672 15.808 29.888 15.744 Q 31.104 15.68 32.32 15.68 Q 36.224 15.68 39.936 16.32 A 32.438 32.438 0 0 1 43.767 17.212 A 25.498 25.498 0 0 1 46.592 18.24 Q 47.36 18.56 47.808 19.296 Q 48.256 20.032 48.256 20.864 A 3.015 3.015 0 0 1 48.114 21.81 A 2.504 2.504 0 0 1 47.456 22.848 Q 46.656 23.616 45.568 23.616 Q 44.864 23.616 44.352 23.36 A 28.641 28.641 0 0 0 35.607 21.15 A 34.967 34.967 0 0 0 32.256 20.992 Q 31.232 20.992 30.144 21.056 Q 29.056 21.12 27.968 21.248 A 3.039 3.039 0 0 1 27.632 21.267 A 2.629 2.629 0 0 1 25.92 20.64 A 2.445 2.445 0 0 1 25.255 19.815 A 2.409 2.409 0 0 1 25.024 18.752 Z" vector-effect="non-scaling-stroke"/></g></svg>