<svg width="50.752" height="51.904" viewBox="0 0 50.752 51.904" xmlns="http://www.w3.org/2000/svg"><g id="svgGroup" stroke-linecap="round" fill-rule="evenodd" font-size="9pt" stroke="#ffffff" stroke-width="0.25mm" fill="#ffffff" style="stroke:#ffffff;stroke-width:0.25mm;fill:#ffffff"><path d="M 13.888 20.544 L 13.888 19.968 Q 13.888 19.264 13.248 19.456 Q 11.072 20.16 8.512 20.64 Q 5.952 21.12 2.752 21.248 Q 1.617 21.311 0.823 20.535 A 2.954 2.954 0 0 1 0.8 20.512 A 2.651 2.651 0 0 1 0 18.596 A 3.296 3.296 0 0 1 0 18.56 Q 0 17.472 0.768 16.64 Q 1.536 15.808 2.688 15.744 A 37.981 37.981 0 0 0 5.391 15.551 Q 6.697 15.408 7.836 15.174 A 20.736 20.736 0 0 0 8.576 15.008 Q 11.072 14.4 13.44 13.568 Q 13.817 13.406 13.877 13.018 A 1.015 1.015 0 0 0 13.888 12.864 Q 13.952 9.856 14.016 7.2 Q 14.08 4.544 14.144 2.624 Q 14.208 1.536 15.008 0.768 Q 15.808 0 16.896 0 A 2.809 2.809 0 0 1 18.158 0.281 A 2.83 2.83 0 0 1 18.944 0.864 Q 19.776 1.728 19.776 2.88 Q 19.776 4.544 19.68 6.816 Q 19.584 9.088 19.584 11.712 A 0.688 0.688 0 0 0 19.647 12.012 Q 19.721 12.168 19.885 12.274 A 0.976 0.976 0 0 0 20.032 12.352 Q 21.312 12.864 21.984 14.048 Q 22.656 15.232 22.656 16.576 Q 22.656 18.624 21.248 20.096 L 21.568 20.096 A 1.425 1.425 0 0 0 21.657 20.093 Q 21.751 20.087 21.878 20.07 A 5.3 5.3 0 0 0 21.92 20.064 A 2.513 2.513 0 0 0 22.207 20.007 A 2.129 2.129 0 0 0 22.336 19.968 Q 25.728 18.176 29.024 17.216 A 24.144 24.144 0 0 1 33.204 16.375 A 20.53 20.53 0 0 1 35.392 16.256 Q 39.36 16.256 42.72 17.92 A 13.594 13.594 0 0 1 46.687 20.939 A 18.105 18.105 0 0 1 48.512 23.296 A 10.684 10.684 0 0 1 49.367 24.818 Q 49.782 25.712 50.112 26.784 Q 50.752 28.864 50.752 31.296 Q 50.752 33.856 49.824 36.544 Q 48.896 39.232 46.752 41.824 A 17.975 17.975 0 0 1 44.141 44.37 Q 42.815 45.434 41.18 46.4 A 30.053 30.053 0 0 1 40.96 46.528 Q 37.312 48.64 31.872 50.048 A 0.564 0.564 0 0 1 31.738 50.094 Q 31.654 50.112 31.552 50.112 L 31.232 50.112 Q 30.144 50.112 29.312 49.344 A 2.492 2.492 0 0 1 28.482 47.531 A 3.118 3.118 0 0 1 28.48 47.424 Q 28.48 46.464 29.088 45.664 A 2.851 2.851 0 0 1 30.712 44.61 A 3.499 3.499 0 0 1 30.72 44.608 A 32.693 32.693 0 0 0 34.282 43.44 A 38.375 38.375 0 0 0 35.712 42.848 Q 38.272 41.728 40.448 40.096 A 14.386 14.386 0 0 0 43.292 37.297 A 13.171 13.171 0 0 0 43.968 36.32 A 8.855 8.855 0 0 0 45.309 31.739 A 10.602 10.602 0 0 0 45.312 31.488 A 9.184 9.184 0 0 0 45.195 30.049 A 10.553 10.553 0 0 0 45.12 29.632 A 11.42 11.42 0 0 0 44.272 26.865 A 8.385 8.385 0 0 0 41.76 23.68 A 9.727 9.727 0 0 0 37.297 21.794 A 13.098 13.098 0 0 0 35.2 21.632 A 17.006 17.006 0 0 0 31.804 21.995 Q 30.232 22.315 28.537 22.919 A 29.456 29.456 0 0 0 28.032 23.104 A 28.459 28.459 0 0 0 24.052 24.99 Q 22.272 25.999 20.431 27.326 A 47.267 47.267 0 0 0 19.904 27.712 A 0.907 0.907 0 0 0 19.663 27.942 Q 19.527 28.133 19.52 28.389 A 1.025 1.025 0 0 0 19.52 28.416 Q 19.584 33.984 19.712 39.328 A 551.101 551.101 0 0 0 19.854 44.333 Q 19.932 46.706 20.026 48.824 A 334.75 334.75 0 0 0 20.032 48.96 Q 20.096 50.176 19.232 51.04 A 2.904 2.904 0 0 1 17.128 51.904 A 3.766 3.766 0 0 1 17.088 51.904 A 2.604 2.604 0 0 1 15.321 51.219 A 3.355 3.355 0 0 1 15.264 51.168 A 2.648 2.648 0 0 1 14.405 49.361 A 3.454 3.454 0 0 1 14.4 49.28 Q 14.272 45.952 14.144 41.984 Q 14.016 38.016 13.952 33.792 Q 13.952 33.442 13.793 33.305 A 0.332 0.332 0 0 0 13.76 33.28 A 0.212 0.212 0 0 0 13.64 33.244 Q 13.507 33.244 13.332 33.394 A 1.503 1.503 0 0 0 13.248 33.472 Q 12.416 34.304 11.584 35.2 Q 10.752 36.096 9.92 37.12 Q 9.664 37.376 9.536 37.632 Q 7.936 40.128 6.144 42.56 A 2.582 2.582 0 0 1 5.334 43.321 Q 4.823 43.618 4.169 43.645 A 3.214 3.214 0 0 1 4.032 43.648 A 2.598 2.598 0 0 1 2.804 43.332 A 3.519 3.519 0 0 1 2.304 43.008 A 2.453 2.453 0 0 1 1.356 41.234 A 3.204 3.204 0 0 1 1.344 40.96 A 3.066 3.066 0 0 1 1.537 39.862 A 2.824 2.824 0 0 1 1.92 39.168 Q 3.904 36.608 6.016 33.376 Q 8.128 30.144 10.144 26.912 Q 12.16 23.68 13.696 21.248 Q 13.851 20.939 13.881 20.672 A 1.137 1.137 0 0 0 13.888 20.544 Z" vector-effect="non-scaling-stroke"/></g></svg>